<svg width="51" height="50" viewBox="0 0 51 50" fill="none" xmlns="http://www.w3.org/2000/svg">
<g id="token-branded:bnb">
<path id="Vector" d="M14.1337 10.5438L25.5003 4.16675L36.8649 10.5438L32.6982 12.9042L25.5003 8.87717L18.3128 12.9042L14.1337 10.5438ZM36.8649 18.6001L32.6982 16.2376L25.5003 20.2667L18.3128 16.2376L14.1337 18.6001V23.3084L21.3107 27.3376V35.3813L25.4982 37.7438L29.6774 35.3813V27.3397L36.8649 23.3105V18.6001ZM36.8649 31.3667V26.6438L32.6982 29.0042V33.7147L36.8649 31.3667ZM39.8399 33.0334L32.6524 37.048V41.7709L44.0191 35.3813V22.6272L39.8399 24.9772V33.0334ZM35.6628 14.5709L39.8295 16.9334V21.6417L44.017 19.2938V14.5709L39.8399 12.2105L35.6628 14.5834V14.5709ZM21.3087 38.7626V43.4709L25.5003 45.8334L29.6774 43.473V38.7709L25.5003 41.1251L21.3212 38.7626H21.3087ZM14.1357 31.3542L18.3024 33.7147V29.0063L14.1357 26.6438V31.3667V31.3542ZM21.3128 14.5709L25.5003 16.9334L29.6795 14.5709L25.5003 12.2105L21.3212 14.5834L21.3128 14.5709ZM11.1587 16.9334L15.3378 14.5709L11.1712 12.2105L6.97949 14.5834V19.3063L11.1566 21.6563L11.1587 16.9334ZM11.1587 24.9772L6.97949 22.6272V35.3813L18.3441 41.7709V37.0376L11.1712 33.0209V24.9647L11.1587 24.9772Z" fill="#F0B90B"/>
</g>
</svg>
