<svg width="46" height="46" viewBox="0 0 46 46" fill="none" xmlns="http://www.w3.org/2000/svg">
<g id="skill-icons:gmail-light" clip-path="url(#clip0_33_34)">
<g id="Group">
<path id="Vector" d="M34.9531 0.5H11.0469C5.222 0.5 0.5 5.222 0.5 11.0469V34.9531C0.5 40.778 5.222 45.5 11.0469 45.5H34.9531C40.778 45.5 45.5 40.778 45.5 34.9531V11.0469C45.5 5.222 40.778 0.5 34.9531 0.5Z" fill="#F4F2ED"/>
<path id="Vector_2" d="M7.81883 36.1905H13.4118V22.6073L5.42188 16.6149V33.7935C5.42188 35.1198 6.4966 36.1905 7.81883 36.1905Z" fill="#4285F4"/>
<path id="Vector_3" d="M32.5879 36.1904H38.1811C39.5073 36.1904 40.578 35.1157 40.578 33.7935V16.6147L32.5879 22.6073" fill="#34A853"/>
<path id="Vector_4" d="M32.5879 12.2202V22.6073L40.578 16.6149V13.4185C40.578 10.4543 37.1942 8.76437 34.8252 10.5422" fill="#FBBC04"/>
<path id="Vector_5" d="M13.4121 22.6073V12.2204L23.0001 19.4111L32.5881 12.22V22.6071L23.0001 29.7983" fill="#EA4335"/>
<path id="Vector_6" d="M5.42188 13.4187V16.6147L13.4118 22.6073V12.2204L11.1747 10.5424C8.80162 8.76452 5.42188 10.4545 5.42188 13.4187Z" fill="#C5221F"/>
</g>
</g>
<defs>
<clipPath id="clip0_33_34">
<rect width="45" height="45" fill="white" transform="translate(0.5 0.5)"/>
</clipPath>
</defs>
</svg>
