<svg width="51" height="50" viewBox="0 0 51 50" fill="none" xmlns="http://www.w3.org/2000/svg">
<g id="cryptocurrency-color:usdt" clip-path="url(#clip0_33_134)">
<g id="Group">
<path id="Vector" d="M25.5 50C39.3071 50 50.5 38.8071 50.5 25C50.5 11.1929 39.3071 0 25.5 0C11.6929 0 0.5 11.1929 0.5 25C0.5 38.8071 11.6929 50 25.5 50Z" fill="#26A17B"/>
<path id="Vector_2" fill-rule="evenodd" clip-rule="evenodd" d="M28.5031 27.161V27.1579C28.3313 27.1704 27.4453 27.2235 25.4687 27.2235C23.8906 27.2235 22.7797 27.1767 22.3891 27.1579V27.1626C16.3141 26.8954 11.7797 25.8376 11.7797 24.572C11.7797 23.3079 16.3141 22.2501 22.3891 21.9782V26.1095C22.7859 26.1376 23.9234 26.2048 25.4953 26.2048C27.3812 26.2048 28.3266 26.1267 28.5031 26.111V21.9813C34.5656 22.2517 39.0891 23.3095 39.0891 24.572C39.0891 25.8376 34.5656 26.8923 28.5031 27.161ZM28.5031 21.5517V17.8548H36.9625V12.2173H13.9297V17.8548H22.3891V21.5501C15.5141 21.8657 10.3438 23.2282 10.3438 24.8595C10.3438 26.4907 15.5141 27.8517 22.3891 28.1688V40.0157H28.5031V28.1657C35.3672 27.8501 40.525 26.4892 40.525 24.8595C40.525 23.2298 35.3672 21.8688 28.5031 21.5517Z" fill="white"/>
</g>
</g>
<defs>
<clipPath id="clip0_33_134">
<rect width="50" height="50" fill="white" transform="translate(0.5)"/>
</clipPath>
</defs>
</svg>
