<svg width="50" height="50" viewBox="0 0 50 50" fill="none" xmlns="http://www.w3.org/2000/svg">
<g id="mage:x-square">
<path id="Vector" d="M18.2913 14.3958L34.2913 35.4583H31.8122L15.6455 14.3958H18.2913Z" fill="black"/>
<path id="Vector_2" d="M35.417 4.16666H14.5837C11.821 4.16666 9.17147 5.26412 7.21796 7.21763C5.26446 9.17113 4.16699 11.8207 4.16699 14.5833V35.4167C4.16699 38.1793 5.26446 40.8288 7.21796 42.7824C9.17147 44.7359 11.821 45.8333 14.5837 45.8333H35.417C38.1797 45.8333 40.8292 44.7359 42.7827 42.7824C44.7362 40.8288 45.8337 38.1793 45.8337 35.4167V14.5833C45.8337 11.8207 44.7362 9.17113 42.7827 7.21763C40.8292 5.26412 38.1797 4.16666 35.417 4.16666ZM30.5837 38.125L23.542 28.9583L15.4587 38.125H11.0003L21.417 26.2292L10.417 11.875H19.6462L26.0212 20.2083L33.3337 11.875H37.792L28.0837 22.9167L39.5837 38.125H30.5837Z" fill="black"/>
</g>
</svg>
